<svg viewBox="0 0 1000 1000" xmlns="http://www.w3.org/2000/svg" xmlns:xlink="http://www.w3.org/1999/xlink"><clipPath id="a"><path d="m494.34 153.14 24.19-37.57-85.43-25.21-72.9 50.58-.21.27 41.53 29.82 37.24-33.33z"/></clipPath><clipPath id="b"><path d="m360.2 140.94-21.72 18.38-15.63 71.15 69.21 46.31 51.39 3.33 59.91-76.77-26-38.49z"/></clipPath><path d="m709.97 25 146.15 189.38-22.64 567.12-479.63 193.5-240.85-580.5 218.2-338.62z" fill="#accff9"/><path d="m487.78 287.46 152.2-243.04 85.43 141.28 47.34-95.34 83.37 104.82-671.4 405.08-54.22-96.2 145.54-261.49 116.9 128.87z" fill="#fff"/><g fill="#d2eafc"><path d="m267.85 315c9.83 8.49 51.22 33.43 32.58 89.41s-75.24 76.56-57.74 127c4.27 12.33 19.24 14.25 39.39 10.13l165.51-99.86-42.27-81.18-12.38 11-116.94-128.93s-18 63.93-8.15 72.43z" opacity=".46"/><path d="m604.73 180.67c25 22.39 13.63 70.48-32.68 99.44s-38.74 109.83-38.74 109.83l234-141.15-26.98-39.79-14.92-23.3-85.41-141.28s-60.23 113.87-35.27 136.25z" opacity=".46"/><path d="m837.5 190.25-6.08 4.93-646.7 372.19 98.27 236.85 559.75-291.35 1.64-4.49 11.74-294z"/><path d="m184.72 567.37 43.87 105.73 10.78-137.18z"/><path d="m837.5 190.25-6.08 4.93-515.34 296.59 106.48 217.74-140.24 93.1.67 1.61 559.75-291.35 1.64-4.49 11.74-294z"/></g><path d="m316.08 491.77-63.1-129.03-13.61 173.18-10.78 137.18 53.73 129.51 140.24-93.1z" fill="#3f9cb2"/><g fill="none" stroke-miterlimit="10" stroke-width="1.54"><g stroke="#fff"><path d="m252.98 362.74 76.16 420.76"/><path d="m286.94 432.18-13.34 44.45"/><path d="m327.12 514.35-31.39 77.16"/><path d="m364.34 589.67-44.35 143.25"/><path d="m245.13 462.61 32.5 37.99"/><path d="m237.91 554.54 61.74 66.01"/><path d="m229.78 658.03 102.19 97.3"/></g><path d="m385.77 634.28-132.79-271.54" stroke="#141414"/></g><path d="m506.2 664.76-132.01 99.08-4.68-307.81z" fill="#49b2c4"/><g fill="none" stroke="#fff" stroke-miterlimit="10" stroke-width="1.54"><path d="m369.51 456.03 78.06 260.85"/><path d="m396.89 497.83-6.25 28.81"/><path d="m429.27 547.29-16.41 50.49"/><path d="m459.22 592.61-21.03 92.91"/><path d="m370.48 519.46 24.4 22.06"/><path d="m371.36 577.85 45.98 38.01"/><path d="m372.36 643.58 75.35 55.37"/></g><path d="m659.98 547.41-130.84 86.87 23.99-305.36z" fill="#3f9cb2"/><g fill="none" stroke-miterlimit="10" stroke-width="1.54"><g stroke="#fff"><path d="m553.13 328.92 47.99 265.11"/><path d="m574.53 372.68-8.41 28"/><path d="m599.85 424.45-19.78 48.62"/><path d="m623.3 471.91-27.95 90.26"/><path d="m548.19 391.85 20.47 23.94"/><path d="m543.64 449.77 38.9 41.6"/><path d="m538.51 514.98 64.39 61.31"/></g><path d="m686.88 601.47-132.8-271.54" stroke="#141414"/></g><path d="m696.93 479.75-83.18 62.42-2.94-193.93z" fill="#49b2c4"/><g fill="none" stroke-miterlimit="10" stroke-width="1.54"><g stroke="#fff"><path d="m610.81 348.24 49.18 164.35"/><path d="m628.05 374.57-3.93 18.15"/><path d="m648.46 405.73-10.34 31.81"/><path d="m667.33 434.29-13.25 58.54"/><path d="m611.41 388.2 15.38 13.9"/><path d="m611.97 424.99 28.97 23.95"/><path d="m612.6 466.4 47.48 34.89"/></g><path d="m772.56 603.98-161.15-255.74" stroke="#141414"/></g><path d="m856 217.55-205.25 162.6-64.19 151.24h53.42l209.23-143.78z" fill="#afddf9"/><path d="m518.53 115.57 3.6 18.4-12.35 18.72-15.44.45-11.58-25.71z" fill="#ffc408"/><path d="m482.76 127.43 35.77-11.86 3.6 18.4-12.35 18.72" fill="none" stroke="#141414" stroke-miterlimit="10" stroke-width="1.54"/><path d="m353.85 975 479.63-193.5 16.53-414.02-573 422.32z" fill="#d2eafc"/><path d="m322.85 176.59 11.96-57.41 28.81-31.91-2.05-27.79h29.33l3.09 40.14-49.92 42.72-12.61 38.33z" fill="#141414"/><path d="m326.44 180.67-27.79-44-30.8 17.53 19.61 47.7 17.37-9.37 14.42 19.28z" fill="#ff7387"/><path d="m287.46 201.9 17.37-9.37 14.42 19.28 7.19-31.14-27.79-44-30.8 17.53" fill="none" stroke="#141414" stroke-miterlimit="10" stroke-width="1.54"/><path d="m295.76 152.69-24.8 9.08-24.22 3.08 2.7-25.86 26.6 2.5 24.93-9.64 14.28 18.33 10.26 13.63-2.66 12.78-13.58-14.06-.2 16.99z" fill="#19277c"/><path d="m295.76 152.69-24.8 9.08-24.22 3.08" fill="none" stroke="#141414" stroke-miterlimit="10" stroke-width="1.54"/><g clip-path="url(#a)"><path d="m494.34 153.14 24.19-37.57-85.43-25.21-72.9 50.58-.21.27 41.53 29.82 37.24-33.33z" fill="#f7920d"/><g fill="none" stroke="#fff" stroke-miterlimit="10" stroke-width=".77"><path d="m421.39 153.43-60.34-13.93"/><path d="m429.42 146.06-49.34-24.25"/><path d="m425.44 91.71 13.32 45.99-38.79-28.28"/><path d="m453.04 91.71-14.28 45.99 38.81-34.21"/><path d="m452.69 147.96 41.91-38.54"/><path d="m470.41 155.01 42.52-41.09"/></g></g><g stroke="#141414" stroke-miterlimit="10" stroke-width="1.54"><path d="m494.34 153.14 24.19-37.57-85.43-25.21-72.9 50.58-.21.27 41.53 29.82 45.07-40.34" fill="none"/><path d="m309.27 162.53-.2 16.99" fill="none"/><path d="m324.8 221.59-6.46 28.56 65.61 42.46-20.11 61.74 38.07 21.38 47.63-113.23z" fill="#141414"/><path d="m276.04 141.49 24.93-9.64 14.28 18.33 10.26 13.63-2.66 12.78" fill="none"/></g><g clip-path="url(#b)"><path d="m360.2 140.94-21.72 18.38-15.63 71.15 69.21 46.31 51.39 3.33 59.91-76.77-26-38.49z" fill="#f7920d"/><g fill="none" stroke="#fff" stroke-miterlimit="10" stroke-width=".77"><path d="m520.71 131.59-143.89 164.22"/><path d="m506.03 118.77-143.89 164.23"/><path d="m491.35 105.96-143.89 164.23"/><path d="m476.66 93.15-143.88 164.23"/><path d="m461.98 80.34-143.89 164.22"/><path d="m447.3 67.52-143.89 164.23"/><path d="m432.61 54.71-143.88 164.23"/></g></g><path d="m443.45 280.11 59.91-76.77-26-38.49-76.32-15.57" fill="none" stroke="#141414" stroke-miterlimit="10" stroke-width="1.54"/><path d="m738.78 456.48-389.57 311.72-40.14-20.07 20.07-23.93 23.56 8.72 377.08-276.44z" fill="#fff"/><g stroke="#141414" stroke-miterlimit="10" stroke-width="1.54"><g fill="none"><path d="m729.78 456.48h9l-389.57 311.72-40.14-20.07"/><path d="m360.2 140.94-21.72 18.38-15.63 71.15"/><path d="m334.16 192.53 118.53 50.04"/></g><circle cx="304.53" cy="108.31" fill="#48d2e5" r="8.78"/><path d="m225.7 333.48 439 170.58 4.37-3.23-430.24-185.84z" fill="#141414"/></g><path d="m436.7 568.45 32.42 38.55s-48.89 42.2-44.77 59.18c2.17 13.38 6.69 18.53 6.69 18.53l120.42-93.66-39.11-87.45z" fill="#f7920d"/><path d="m431.04 684.75 120.42-93.66-39.11-87.49-75.65 64.85" fill="none" stroke="#141414" stroke-miterlimit="10" stroke-width="1.54"/><path d="m259.72 140s19.63-35.9 40.67-29.34 10.06 33.63 10.06 33.63z" fill="#48d2e5"/><path d="m766.58 453.17-169.26 345.21-57.48 45.04-179.82-15.86 93.41-51.66 297.71-322.73z" fill="#fff"/><path d="m751.14 453.17h15.44l-169.26 345.21-57.48 45.04" fill="none" stroke="#141414" stroke-miterlimit="10" stroke-width="1.54"/><path d="m300.39 110.62c21 6.56 10.06 33.63 10.06 33.63l-50.73-4.25" fill="none" stroke="#141414" stroke-miterlimit="10" stroke-width="1.54"/><g fill="#ffc408"><path d="m310.62 211.81 21.61 9.78 20.07-44.26-18.52-18.01z"/><path d="m310.62 211.81 29.95-86.25 68.86-56.82-7.42-30.57 47.53 8.06v33.32l-89.34 61.39-23.85 39.73"/><path d="m570.81 476.63 111.1 100-113.46 171.42h-71s-12.35-24.7 7.2-54.55 49.35-78.74 49.35-78.74l-60.26-61.76z"/></g><path d="m633.61 571.92a28.85 28.85 0 0 0 25.67-15.69l-41.5-37.34a28.88 28.88 0 0 0 15.83 53z" fill="none" stroke="#fff" stroke-miterlimit="10" stroke-width="1.54"/><path d="m633.61 561.05a18 18 0 0 0 17.14-12.49l-24.43-22a18 18 0 0 0 7.29 34.48z" fill="#fff"/><g fill="none" stroke="#141414" stroke-miterlimit="10" stroke-width="1.54"><path d="m570.82 476.63 111.09 99.96-113.46 171.46h-71.02"/><path d="m310.62 211.81 21.61 9.78 20.07-44.26-8.8-8.56"/><path d="m402.01 38.17 47.53 8.06v33.32l-89.34 61.39-23.85 39.73"/></g><path d="m435.29 292.61-75.27 191.95 56.61 72.56-6.18 15.96 19.43 10.8 72.18-64.88-46.32-78.95 27.02-212.6-38.85 20.9z" fill="#37308e"/><path d="m435.29 292.61 8.62-44.26 38.85-20.9-27.02 212.6 46.32 78.95-72.18 64.88-19.43-10.8 6.18-15.96 23.67-16.72" fill="none" stroke="#141414" stroke-miterlimit="10" stroke-width="1.54"/><path d="m510.16 203.06-20.11 214.08 82 41.17 5.14 24.71-70.99 82.34-38.11-5.66-57.81-88.56 55.5-228.57z" fill="#48d2e5"/><path d="m465.78 242.57 44.38-39.51-20.11 214.08 82 41.17 5.14 24.71-70.99 82.34-38.11-5.66" fill="none" stroke="#141414" stroke-miterlimit="10" stroke-width="1.54"/><path d="m314.73 187.24-9.9 5.29" fill="#ff7387" stroke="#141414" stroke-miterlimit="10" stroke-width="1.54"/><ellipse cx="620.91" cy="47.62" fill="#fff" rx="3.98" ry="17.92" transform="matrix(.70710678 -.70710678 .70710678 .70710678 148.19 452.99)"/><path d="m496.06 192.53 14.1 10.53-74.87 89.55-13.9-13.93z" fill="#ffc408" stroke="#141414" stroke-miterlimit="10" stroke-width="1.54"/><path d="m639.98 25-267.55 290.85 11.63 17.63z" fill="#fff"/><path d="m384.06 333.48 255.92-308.48" fill="none" stroke="#141414" stroke-miterlimit="10" stroke-width="1.54"/><path d="m522.13 133.97 18.52 8.88 2.32 20.46-17.75 12.73-6.69-19.01-6.37 6.92-2.38-11.26z" fill="#48d2e5"/><g stroke="#141414" stroke-miterlimit="10" stroke-width="1.54"><g fill="none"><path d="m509.78 152.69 12.35-18.72 18.52 8.88 2.32 20.46-17.75 12.73"/><path d="m518.53 157.03-6.37 6.92"/><path d="m523.87 151.92 6.23 20.62"/><path d="m530.81 147.96 5 21.12"/><path d="m536.7 145.55 3.24 20.16"/></g><ellipse cx="378.43" cy="324.3" fill="#fff" rx="4.85" ry="10.73" transform="matrix(.8081955 -.58891428 .58891428 .8081955 -118.4 285.05)"/><ellipse cx="624.1" cy="44.42" fill="none" rx="3.98" ry="17.92" transform="matrix(.70710678 -.70710678 .70710678 .70710678 151.38 454.32)"/><path d="m597.32 798.38-95.26-14.88" fill="#fff"/><path d="m352.7 732.92-8.12 22.85" fill="#fff"/><path d="m381.55 355.9-20.37 38.71 29.93 9.78 13.91-36.91z" fill="#141414"/><path d="m572.05 458.32-82 82.08" fill="none"/><path d="m374.72 351.81-10.4 17.15 12.68 4.7 4.55-15.48z" fill="#141414"/><path d="m490.05 417.15-37.36-18.02" fill="#141414"/><circle cx="562.85" cy="546.06" fill="#fff" r="6.75"/><circle cx="580.99" cy="576.04" fill="#fff" r="6.75"/><circle cx="474.12" cy="569.83" fill="#141414" r="4.48"/><circle cx="483.07" cy="585.22" fill="#141414" r="4.48"/><g fill="none"><path d="m513.5 582.76s28.83-4.41 49.35-35.61"/><path d="m535.8 609.93s24.67-3.12 45.19-34.32"/><path d="m554 614.76h24.1a8.44 8.44 0 0 1 6.82 13.41l-17.92 24.61a57.77 57.77 0 0 1 -46.67 23.74h-4.74"/><path d="m582.48 631.52s-26.39-11.35-39.74-3.89"/><path d="m573.37 644.47s-25.88-12.27-39.4-3.19"/><path d="m561.55 659s-24.1-9.16-37.62-.08"/><path d="m508 700.45s56.86-3.86 60.47 47.6"/><path d="m474.12 569.83s-5 10.07-29.19 17"/><path d="m484.23 583.25s-5 10.06-29.18 17"/><path d="m467.58 607 13.42 2.7a3.54 3.54 0 0 1 1.64 6l-19.27 18.1a29.79 29.79 0 0 1 -24.63 7.72l-2.89-.42"/><path d="m461.37 614.06a24.75 24.75 0 0 1 17.22 5.48"/><path d="m452.91 620.55s8.39-.27 16.92 6.4"/><path d="m444.73 628.5s10.24-1.89 18.78 4.78"/></g></g><path d="m442.74 675.65c-4.82-16.41-11.36-22.26-14.18-24.1-3.33 5.66-5.14 10.82-4.21 14.67 2.17 13.38 6.69 18.53 6.69 18.53z" fill="#141414"/><path d="m288 176.8 12.43-5.62-3.13-6.93.1-.04-2.81-6.22-20.53 9.27-12.42 5.62 2.8 6.21 2.81 6.22 12.43-5.62-2.81-6.21 8-3.62z" fill="#fff"/><g stroke="#141414" stroke-miterlimit="10" stroke-width="1.54"><g fill="none"><path d="m284.87 169.86 3.13 6.94 12.43-5.62-3.13-6.93.1-.04-2.81-6.22"/><path d="m267.25 185.31 12.43-5.62-2.81-6.21"/><path d="m279.98 168.09 1.45 19.15 6.8-2.96"/></g><g fill="#141414"><path d="m295.87 160.82 19.74-8.59 1.89 2.51-18.46 13.35z"/><path d="m294.83 192.17a4 4 0 0 0 1.95-5.26l-7.21 3.31a4 4 0 0 0 5.26 1.95z"/></g></g><path d="m856 217.55-205.25 162.6 171.41-100.04 33.96 4.26 30.88-41.8" fill="#fff"/><g fill="#4bb3c4"><path d="m615.6 248.35-6.27 80.57 28.79-13.93z"/><path d="m641.78 265.59-4.64 49.87 22.84-11.18z"/><path d="m725.91 240.65-4.63 49.88 22.84-11.19z"/><path d="m784.14 188.5-2.71 34.78 12.43-6.02z"/><path d="m795.44 195.94-2 21.53 9.86-4.83z"/><path d="m515.81 315.62-6.28 80.57 28.8-13.93z"/><path d="m333.4 415.75-6.27 80.57 28.79-13.93z"/></g><path d="m639.98 44.42 100.35 164.56" fill="none" stroke="#141414" stroke-miterlimit="10" stroke-width="1.54"/><path d="m374.72 351.81-98.68-109.24" fill="none" stroke="#141414" stroke-miterlimit="10" stroke-width="1.54"/><g fill="#fff"><path d="m856.12 415.79-87.24 332.26 43.62-3.7 58.55-334.83"/><path d="m803.3 436.96-154.74 442.32 18.77-10.81z"/></g></svg>