<svg viewBox="0 0 1000 1000" xmlns="http://www.w3.org/2000/svg" xmlns:xlink="http://www.w3.org/1999/xlink"><clipPath id="a"><path d="m728.37 808.82-236.97 96.81-176.75-86.77-64.17-708.91h559.96z"/></clipPath><clipPath id="b"><path d="m538.94 417.06h-8.09l41.34 126.25-29.76 99.74-31.72 1.31-31.71-1.31-29.77-99.74 37.33-123.59h-8.09l-102.04 174.02 20.51 62.05h113.07 1.4 113.07l20.52-62.05z"/></clipPath><path d="m491.4 905.63 236.97-96.81 150.96-3.83 91.28-210.06-155.64-121.06 101.81-209.64-65.53-113.65-387.64-89.85-229.07 218.86 23.4 169.07-183.48 55.65 84.01 126.9-22.23 100.06z" fill="#f9d1b4"/><g clip-path="url(#a)"><path d="m728.37 808.82-236.97 96.81-176.75-86.77-64.17-708.91h559.96z" fill="none"/><path d="m197.73 110.51h693.64v69.7h-693.64z" fill="#fff"/><path d="m197.73 180.21h693.64v69.7h-693.64z" fill="#7fc4f7"/><path d="m197.73 249.91h693.64v69.7h-693.64z" fill="#fff"/><path d="m197.73 319.6h693.64v69.7h-693.64z" fill="#7fc4f7"/><path d="m197.73 389.3h693.64v69.7h-693.64z" fill="#fff"/><path d="m197.73 459h693.64v69.7h-693.64z" fill="#7fc4f7"/><path d="m197.73 528.69h693.64v69.7h-693.64z" fill="#fff"/><path d="m197.73 598.39h693.64v69.7h-693.64z" fill="#7fc4f7"/><path d="m197.73 668.09h693.64v69.7h-693.64z" fill="#fff"/><path d="m197.73 737.79h693.64v69.7h-693.64z" fill="#7fc4f7"/><path d="m197.73 807.48h693.64v69.7h-693.64z" fill="#fff"/></g><path d="m927.8 489-31.63-11.4-28.72 92.68-38.58 5.69-46.33 131.6 76.39 20.49 54.21-131.8-22.3-17.72z" fill="#fff"/><path d="m903.14 490.64 6.14-22.38 26.99 9.76-13.16 20.08z" fill="#f9e746"/><g stroke="#0c0c0c" stroke-linecap="round" stroke-miterlimit="10" stroke-width="1.76"><g fill="none"><path d="m936.27 473.14-13.16 20.08-11.11-4.15-8.86-3.31"/><path d="m787.91 707.57 76.39 20.49 54.21-131.8-22.3-17.72 36.96-89.54-31.63-11.4-28.72 92.68-38.58 5.69"/><path d="m253.59 87.29 66.72 737.1 176.76 86.77 236.97-96.81 88.49-753.62h-53.2"/></g><path d="m454.98 173.51-35.92 17.7 12.74 56.82-20.85 25.38 36.57 94.5-84.7 21.5v78.55l-44.03 127.56 31.34 86.6 92.45-.59h171.14 97.85l10.95-109.41-53.83-25.75 35.11-114.68-43.3-60.85-44.03-3.52-30.86-71.38 2.34-59.68z" fill="#0c0c0c"/><path d="m699.76 681.53 10.96-109.41-53.83-25.75 35.11-114.68-43.3-60.85-44.03-3.52-30.87-71.38 2.34-59.68-128.03-66.69-40.85 21.64 12.74 56.82-20.85 25.38 35.2 96.7-81.95 21.28-1.38 60.78" fill="none"/></g><path d="m637.1 518.28 234.04-32.18 8.19-42.71-272.08-244.13-47.39-5.71 8.34 25.74 37.3 31.6-18.65 2.7-.19 15.45 37.56-2.94 167.35 169.68-260.72-17.27-3.58-39.48h-37.59l-3.12 40.69-46.65 5.53-180.21 92.45-78.41-221.17 9.36-79.58-8.77-1.17-16.39 34.52-29.25 11.12 76.65 358.09 198.94-87.18 30.42 190.75-32.66 63.53 71.47 28.47 139.36-44.39-22.53-49.96z" fill="#ff97ad"/><path d="m197.73 626.15 214.1-93.82 30.42 190.75-32.66 63.53 71.47 28.47 139.36-44.39-22.53-49.96 39.21-202.45 234.04-32.18 8.19-42.71-272.08-244.13-47.39-5.71 8.34 25.74 37.3 31.6-18.65 2.7-.19 15.45 37.56-2.94" fill="none" stroke="#0c0c0c" stroke-linecap="round" stroke-miterlimit="10" stroke-width="1.76"/><path d="m810.44 435.78-279.59-17.27-3.58-39.48h-37.59l-3.12 40.69-46.65 5.53-180.21 92.45-78.41-221.17 9.36-79.58-8.77-1.17" fill="none" stroke="#0c0c0c" stroke-linecap="round" stroke-miterlimit="10" stroke-width="1.76"/><path d="m143.84 337.81 53.41-19.19 11.61 44.76-59.89 11.06z" fill="#7fc4f7"/><g stroke="#0c0c0c" stroke-linecap="round" stroke-miterlimit="10" stroke-width="1.76"><path d="m143.84 337.81 53.41-19.19 11.61 44.76-59.89 11.06" fill="none"/><path d="m459.81 245 2.19 110.62 45.64 53.1 48.27-48.27 12.29-123.31s-107.42-74.8-108.39 7.86z" fill="#ff97ad"/><path d="m449.26 189.36-1.74-35.16 35.11-10.54 50.68 39.06 45.28-9.21 8.07 57.36 25.86-3.39 22.53 17.77-22.03-1.72-15.51 19.57-30.56-17.53-27.71-12.47-36.06 6.3-43.37-28.95" fill="#0c0c0c"/></g><circle cx="162.56" cy="116.53" fill="#cdf46c" r="32.21"/><circle cx="162.56" cy="116.53" fill="#f9e746" r="24.23"/><g stroke-linecap="round" stroke-miterlimit="10" stroke-width="1.76"><g stroke="#0c0c0c"><path d="m175.47 167-13.84 64.1-37.11 8.3-38.69-52.35-11.37-50.81 89.65-20.05z" fill="#fff"/><circle cx="162.56" cy="116.53" fill="none" r="24.23"/><g fill="#fff"><path d="m157.27 92.88 10.58 47.3"/><path d="m138.91 121.82 47.3-10.58"/><path d="m148.15 136.02 28.81-38.98"/><path d="m182.96 128.24-42.67-22.99"/><path d="m164.11 116.19-89.65 20.05 11.25 50.29 89.76-19.53z"/></g><path d="m124.52 239.4 37.11-8.3 13.84-64.1-89.76 19.53.12.52z" fill="#f9e746"/></g><g fill="none" stroke="#fff"><path d="m142.67 351.23 53.54-19.3"/><path d="m145.89 363.23 53.13-16.7"/></g></g><ellipse cx="119.28" cy="126.21" fill="#fff" rx="45.93" ry="11.63" transform="matrix(.97587867 -.21831357 .21831357 .97587867 -24.67 29.08)"/><g stroke="#0c0c0c" stroke-linecap="round" stroke-miterlimit="10" stroke-width="1.76"><path d="m131.12 123.56a32.22 32.22 0 1 1 40 24" fill="none"/><path d="m164.11 116.19c1.4 6.27-17.53 15.84-42.29 21.38s-46 4.94-47.36-1.33 17.54-15.84 42.28-21.38c4.7-1 9.27-1.88 13.6-2.49 3-.43 5.85-.74 8.57-1 14.14-1.09 24.24.55 25.2 4.82z" fill="none"/><path d="m87.25 186.15 37.6 5.06 49.2-23.31-15.3-5.56-58.82 13.16z" fill="#f7b348"/><path d="m173.76 348.96-25.69-114.83-8.85 1.98 25.69 114.83-24.57 27.77 33.73-7.55 34.79-7.78z" fill="#fff"/></g><path d="m141.08 227.14-17.32-2.43 7.67-19.62 17.29 2.53z" fill="#fff"/><path d="m143.16 230.64-17.32-2.43 7.67-19.62 17.29 2.52z" fill="none" stroke="#0c0c0c" stroke-linecap="round" stroke-miterlimit="10" stroke-width="1.76"/><path d="m143.87 189.85-2.37 9.53 10.58 7.07 8.02-14.38z" fill="#fff"/><g stroke="#0c0c0c" stroke-linecap="round" stroke-miterlimit="10" stroke-width="1.76"><path d="m149.63 188.37-2.37 9.52 10.58 7.08 8.02-14.39z" fill="none"/><path d="m121.44 183.51-42.69-91.35-53.75 26.44" fill="none"/><path d="m124.85 191.21 6.69 13.88" fill="#fff"/></g><path d="m116.93 256.74 48.56-6.44 5.27 6.44-7.02 45.05-42.71 13.46z" fill="#fc9dad"/><path d="m165.49 250.3 5.27 6.44-7.02 45.05-42.71 13.46" fill="none" stroke="#0c0c0c" stroke-linecap="round" stroke-miterlimit="10" stroke-width="1.76"/><path d="m492.72 276.07h75.48" fill="#fff" stroke="#0c0c0c" stroke-linecap="round" stroke-miterlimit="10" stroke-width="1.76"/><ellipse cx="480.41" cy="276.07" fill="#f96d30" rx="19.63" ry="23.58"/><ellipse cx="532" cy="276.07" fill="#f96d30" rx="19.63" ry="23.58"/><g stroke="#0c0c0c" stroke-linecap="round" stroke-miterlimit="10" stroke-width="1.76"><g fill="none"><ellipse cx="476.9" cy="276.07" rx="19.63" ry="23.58"/><ellipse cx="528.48" cy="276.07" rx="19.63" ry="23.58"/><path d="m504.96 288.7-11.12 37.3h13.95"/></g><g fill="#fff"><path d="m490.74 345.09 16.02 2.85 25.24-10.31-18 21.28h-18.65z"/><path d="m494.97 345.84-11.69-3.16"/></g></g><path d="m409.59 786.61-31.7 61.68 113.51 57.34 160.32-65.53-31.3-69.41-139.36 44.39z" fill="#cdf46c"/><g fill="none" stroke="#0c0c0c" stroke-linecap="round" stroke-miterlimit="10" stroke-width="1.76"><path d="m663.65 866.53-43.23-95.84-139.36 44.39-71.47-28.47-46.55 90.57"/><path d="m500.04 358.91h-9.3l4.24 7.46"/><path d="m486.56 419.72 2.43 114.07 20.84 15.8 20.63-16.9.39-114.18"/></g><ellipse cx="508.7" cy="567.96" fill="#fff" rx="9.58" ry="18.37"/><path d="m508.7 549.59c5.3 0 9.58 8.22 9.58 18.37s-4.28 18.36-9.58 18.36" fill="none" stroke="#0c0c0c" stroke-linecap="round" stroke-miterlimit="10" stroke-width="1.76"/><path d="m528.05 548.87c3 4.69 10.56 20.11 7.25 22.22s-16.21-9.89-19.2-14.58-2.75-10.2.55-12.3 8.41-.03 11.4 4.66z" fill="#fff"/><path d="m516.65 544.21c3.3-2.11 8.41 0 11.4 4.66s10.56 20.11 7.25 22.22" fill="none" stroke="#0c0c0c" stroke-linecap="round" stroke-miterlimit="10" stroke-width="1.76"/><path d="m489.13 548.87c-3 4.69-10.56 20.11-7.25 22.22s16.21-9.89 19.2-14.58 2.75-10.2-.55-12.3-8.41-.03-11.4 4.66z" fill="#fff"/><path d="m481.88 571.09c3.3 2.11 16.21-9.89 19.2-14.58s2.75-10.2-.55-12.3" fill="none" stroke="#0c0c0c" stroke-linecap="round" stroke-miterlimit="10" stroke-width="1.76"/><path d="m477.8 420.76v84.51l27.16 25.23 33.8-6.36v-105.1" fill="none" stroke="#0c0c0c" stroke-linecap="round" stroke-miterlimit="10" stroke-width="1.76"/><g clip-path="url(#b)"><path d="m538.94 417.06h-8.09l41.34 126.25-29.76 99.74-31.72 1.31-31.71-1.31-29.77-99.74 37.33-123.59h-8.09l-102.04 174.02 20.51 62.05h113.07 1.4 113.07l20.52-62.05z" fill="#f9e746"/><g fill="#fff"><circle cx="627.44" cy="579.3" r="21.94"/><circle cx="569.1" cy="610.52" r="24.2"/><circle cx="390.18" cy="601.24" r="24.2"/><circle cx="459.81" cy="625.44" r="24.2"/><circle cx="584.44" cy="539.22" r="18.14"/><circle cx="427.82" cy="557.36" r="18.14"/><circle cx="409.69" cy="656.67" r="18.14"/><circle cx="432.51" cy="497.74" r="18.14"/><circle cx="627.44" cy="644.19" r="18.14"/><circle cx="584.44" cy="481.32" r="18.14"/></g></g><g stroke="#0c0c0c" stroke-linecap="round" stroke-miterlimit="10" stroke-width="1.76"><path d="m486.56 419.72-37.33 123.59 29.77 99.74 31.71 1.31 50.74-1.31" fill="none"/><path d="m390.18 655.79h119.83 1.4 113.07l20.52-62.05-94.03-156.63" fill="none"/><g fill="#fff"><path d="m539.67 481.32s16.24 8.91 15.36 14.77-14.44-2.92-15.36-14.77z"/><path d="m539.67 478.19s17-7.26 21.11-2.95-11.23 9.56-21.11 2.95z"/><path d="m477.8 483.32s-18.55 8.91-17.54 14.77 16.5-2.92 17.54-14.77z"/><path d="m476 480.2s-19.46-7.27-24.1-3 12.86 9.6 24.1 3z"/></g></g><circle cx="532" cy="540.59" fill="#fff" r="5.92"/><path d="m527.79 536.42a5.93 5.93 0 1 1 4.21 10.1" fill="none" stroke="#0c0c0c" stroke-linecap="round" stroke-miterlimit="10" stroke-width="1.76"/><circle cx="486.56" cy="540.59" fill="#fff" r="5.92"/><g stroke="#0c0c0c" stroke-linecap="round" stroke-miterlimit="10" stroke-width="1.76"><path d="m486.56 534.67a5.93 5.93 0 0 1 0 11.85" fill="none"/><circle cx="508.28" cy="527.85" fill="#fff" r="6.82"/><path d="m674.84 251.18 12.16 13.05-27.55 41.44-18-12.95s26.36-50.9 33.39-41.54z" fill="#f9e746"/></g><g fill="#fff"><circle cx="669.37" cy="247.34" r="9.29"/><circle cx="660.08" cy="262.81" r="9.29"/><circle cx="650.13" cy="278.16" r="9.29"/></g><path d="m504.96 648.76-34.04 44.47 21.56 11.12 16.22-48.56z" fill="#f9e746"/><path d="m470.92 693.23 21.56 11.12 16.22-48.56-3.74-7.03" fill="none" stroke="#0c0c0c" stroke-linecap="round" stroke-miterlimit="10" stroke-width="1.76"/><circle cx="640.19" cy="293.26" fill="#fff" r="9.29"/><g fill="none" stroke="#0c0c0c" stroke-linecap="round" stroke-miterlimit="10" stroke-width="1.76"><path d="m669.76 238.06a9.29 9.29 0 1 1 -.79 18.56"/><path d="m660.47 253.53a9.29 9.29 0 1 1 -.79 18.56"/><path d="m650.52 268.88a9.29 9.29 0 1 1 -.79 18.56"/><path d="m640.58 284a9.29 9.29 0 1 1 -.78 18.56"/></g><path d="m505 648.77s-26.94-14-19-30.72 28.25 18.74 19 30.72z" fill="#f9e746"/><path d="m485.92 618.05c7.9-16.68 28.33 18.74 19 30.72" fill="none" stroke="#0c0c0c" stroke-linecap="round" stroke-miterlimit="10" stroke-width="1.76"/><path d="m516.94 648.76 34.03 44.47-21.55 11.12-16.23-48.56z" fill="#f9e746"/><path d="m513.19 655.79 3.75-7.03 34.03 44.47-24.97 12.88" fill="none" stroke="#0c0c0c" stroke-linecap="round" stroke-miterlimit="10" stroke-width="1.76"/><path d="m510.26 640.27v-45.34" fill="#fff" stroke="#0c0c0c" stroke-linecap="round" stroke-miterlimit="10" stroke-width="1.76"/><path d="m516.94 648.77s26.94-14 19-30.72-28.29 18.74-19 30.72z" fill="#f9e746"/><g stroke="#0c0c0c" stroke-linecap="round" stroke-miterlimit="10" stroke-width="1.76"><path d="m516.94 648.77s26.94-14 19-30.72" fill="none"/><ellipse cx="510.75" cy="648.77" fill="#f7b348" rx="5.79" ry="15.04"/><path d="m394.86 796.21-14.04 22.82 46.51 14.92" fill="#cdf46c"/></g><path d="m440.5 921.72 40.56-106.64h14.84l-6.09 124.19" fill="#b7db46"/><path d="m460.05 870.3 21.01-55.22h14.84l-6.09 124.19" fill="none" stroke="#0c0c0c" stroke-linecap="round" stroke-miterlimit="10" stroke-width="1.76"/><path d="m625.69 775.15 19.31 27.21-126.72 40.13" fill="#cdf46c" stroke="#0c0c0c" stroke-linecap="round" stroke-miterlimit="10" stroke-width="1.76"/><path d="m623.64 751.16-133.83 40.37-90.27-31.01-18.72 39.21 108.99 25.74 150.8-41.54z" fill="#dff970"/><path d="m399.54 760.52-18.72 39.21 108.99 25.74 150.8-41.54-16.97-32.77-55.04 16.6" fill="none" stroke="#0c0c0c" stroke-linecap="round" stroke-miterlimit="10" stroke-width="1.76"/><path d="m520.66 932.25-15.7-85.13" fill="#fff" stroke="#0c0c0c" stroke-linecap="round" stroke-miterlimit="10" stroke-width="1.76"/><path d="m489.81 791.53 36.26 33.94 37.3-10.39-64.25-39.93z" fill="#b7db46"/><path d="m568.6 813.63-42.53 11.84-36.26-33.94 9.31-16.38 27.47 17.07" fill="none" stroke="#0c0c0c" stroke-linecap="round" stroke-miterlimit="10" stroke-width="1.76"/><ellipse cx="510.75" cy="739.75" fill="none" rx="3.93" ry="8.48" stroke="#0c0c0c" stroke-linecap="round" stroke-miterlimit="10" stroke-width="1.76"/><path d="m106.98 205.09 3.37-6.94 5.7 4.32-4.53 7.9z" fill="#fff"/><g fill="none" stroke-linecap="round" stroke-miterlimit="10" stroke-width="1.76"><g stroke="#0c0c0c"><path d="m170.76 256.74-38.03 9.07"/><path d="m168.71 269.9-35.98 10.54"/><path d="m166.46 284.34-33.73 10.72"/></g><g stroke="#fff"><path d="m532 264.23-14.41 20.11"/><path d="m537.48 269.72-14.41 20.11"/><path d="m479.87 264.23-14.41 20.11"/><path d="m485.35 269.72-14.41 20.11"/></g><path d="m275.3 509.69-30.96 16.2" stroke="#0c0c0c"/></g><path d="m129.8 779.83 287.88 159.44-271.79-41.25z" fill="#f9d1b4"/><path d="m923.22 530.5 51.78 40.84v-24.89z" fill="#f9d1b4"/><g fill="none" stroke="#0c0c0c" stroke-linecap="round" stroke-miterlimit="10" stroke-width="1.76"><path d="m645 517.2-26.33 3.83"/><path d="m448.11 166.06-.59-19.32 35.98-12.29 51.79 35.98 22.38-11.41"/><path d="m579.46 206.12 25.75 2.35"/><path d="m582.39 221.34h24.28"/></g><path d="m764.65 712.54 45.79-14.04 27.94 14.04 56.51-14.04 11.36 29.56-44.27 35.97z" fill="#f9d1b4"/><path d="m764.65 712.54 45.79-14.04 27.94 14.04 56.51-14.04 11.36 29.56" fill="none" stroke="#0c0c0c" stroke-linecap="round" stroke-miterlimit="10" stroke-width="1.76"/><path d="m815.81 607.77 44.73 15.84-19.51 47.39-39.41-17.55z" fill="#47d6aa"/><g fill="none" stroke="#0c0c0c" stroke-linecap="round" stroke-miterlimit="10" stroke-width="1.76"><path d="m810.44 610.11 44.73 15.84-19.51 47.39-39.41-17.55"/><path d="m810.44 630.63 8.63-7.61 1.17 10.83 8.77-2.05 2.07 7.59h7"/><path d="m810.44 642.91 13.82 4.98"/></g></svg>