<svg viewBox="0 0 1000 1000" xmlns="http://www.w3.org/2000/svg"><path d="m328.03 25 463.32 103.99 87.27 390.06-196.76 455.95-477.59-65.37-125.2-476z" fill="#172338"/><path d="m134.85 374.06-42.05-54.77 29.35-15.07 19.04 13.88 13.89-19.04 28.16 14.68-23 52.89z" fill="#b78030"/><path d="m183.24 313.74-28.16-14.68-13.89 19.04 5.95 33.06" fill="none" stroke="#231f20" stroke-miterlimit="10" stroke-width="1.59"/><path d="m160.24 366.63-25.39 7.43-42.05-54.77 29.35-15.07" fill="none" stroke="#231f20" stroke-miterlimit="10" stroke-width="1.59"/><path d="m128.9 413.53s-14.28-29.6 9.92-43.82 47.6 5.59 52 11.82-61.92 32-61.92 32z" fill="#fff"/><path d="m128.9 413.53s-14.28-29.6 9.92-43.82" fill="none" stroke="#231f20" stroke-miterlimit="10" stroke-width="1.59"/><path d="m603.71 328.05 16.07 127.14 7.73-125.55" fill="#cee9f4"/><path d="m603.71 328.05 16.07 127.14" fill="none" stroke="#231f20" stroke-miterlimit="10" stroke-width="1.59"/><path d="m615.68 232.45-8.73-5.16-25.98 7.14-7.73-15.47-11.91 5.16 5.56 11.31-14.08 5.15-10.71-16.06-18.25 7.14 12.96 15.27-18.12 5.35-16.53-18.11-19.04 9.88 18.23 15.76 3.71 3.2 7.09 6.13 80.46-28.1 18.51-3.04z" fill="#995822"/><g fill="none" stroke="#231f20" stroke-miterlimit="10" stroke-width="1.59"><path d="m561.33 224.12 5.56 11.31-14.08 5.15"/><path d="m483.12 244.05 18.23 15.76 3.71 3.2 7.09 6.13 80.46-28.1 18.51-3.04 4.56-5.55-8.73-5.16-25.98 7.14"/><path d="m523.85 231.66 12.96 15.27-18.12 5.35"/></g><path d="m544.75 399.12 53.95 69.81-33.85-90.67" fill="#cee9f4"/><path d="m544.75 399.12 53.95 69.81" fill="none" stroke="#231f20" stroke-miterlimit="10" stroke-width="1.59"/><path d="m592.61 241.04 18.51-11.37 25.65 2.12 4.23 7.67-24.2 16.39 18.65 77.23 36.49-13.88-17.72 99.82.53-71.93-115.3 71.93-2.64-68.49 58.7-42.05z" fill="#fff"/><path d="m525.17 359.12-19.04-3.83-2.64 13.75 28.82-2.91z" fill="#fff"/><g fill="none" stroke="#231f20" stroke-miterlimit="10" stroke-width="1.59"><path d="m503.49 369.04 28.82-2.91-7.14-7.01"/><path d="m636.77 231.79 4.23 7.67-29.88 20.25"/><path d="m654.22 419.02.53-71.93-115.3 71.93-2.64-68.49 58.7-42.05-2.9-67.44 18.51-11.37"/><path d="m623.34 336.85 48.18-17.6"/></g><path d="m561.39 363.6s14.56 44.58-19.56 78.69c-6.08 26.18-16.92 79.6-16.92 79.6l-3.44-75.63s21.42-21.29 3.7-87.14l33.29-24.12" fill="#fff"/><path d="m524.91 521.89-3.44-75.63s21.42-21.29 3.7-87.14l33.29-24.12" fill="none" stroke="#231f20" stroke-miterlimit="10" stroke-width="1.59"/><path d="m561.39 363.6s14.56 44.58-19.56 78.69" fill="none" stroke="#231f20" stroke-miterlimit="10" stroke-width="1.59"/><path d="m590.63 290.21 44.55 5.71 1.99 15.73-45.09-3.04z" fill="#d83a3a"/><g stroke="#231f20" stroke-miterlimit="10" stroke-width="1.59"><path d="m637.17 311.65-45.09-3.04-1.45-18.4" fill="none"/><path d="m603.71 328.05 5.57 47.41" fill="#fff"/><path d="m639.47 236.69-2.7-4.9-6.35-.52c.46 2.23 2.26 5.97 9.05 5.42z" fill="#231f20"/><circle cx="615.44" cy="236.07" fill="#231f20" r="1.03"/><path d="m618.65 245.05a6.73 6.73 0 0 0 6.85 0" fill="none"/></g><g fill="#ffc229"><circle cx="591.02" cy="299.62" r="4.76"/><circle cx="606.98" cy="300.93" r="4.76"/><circle cx="621.17" cy="302.77" r="4.76"/><circle cx="635.45" cy="303.56" r="4.76"/></g><g fill="none" stroke-miterlimit="10" stroke-width="1.59"><g stroke="#231f20"><path d="m589.53 304.66a4.76 4.76 0 1 1 0-9.52"/><path d="m605.5 306a4.76 4.76 0 1 1 0-9.52"/><path d="m619.68 307.81a4.76 4.76 0 0 1 0-9.52"/><path d="m634 308.6a4.76 4.76 0 1 1 0-9.52"/></g><path d="m418.47 360.86s141 54.81 192-58.95" stroke="#ffc229"/></g><path d="m441 451s-174.3-145.61-276.38-79c-84.36 55.08-39.67 157.61-4 190.41 77 18 189.08 15.24 189.08 15.24z" fill="#b78030"/><path d="m441 451-91.29 126.7s-112.12 2.74-189.08-15.24c-35.7-32.8-80.39-135.33 4-190.41 0 0 22.74-15.6 62.41-5" fill="none" stroke="#231f20" stroke-miterlimit="10" stroke-width="1.59"/><path d="m348.66 370.07 42.65 10.66 14.27-26.73 21.42 11.4-5.55 37.39-77.95-2.77z" fill="#231f20" stroke="#231f20" stroke-miterlimit="10" stroke-width="1.59"/><path d="m300.26 355.92-3.7-16.92-34.12 7.93-2.9 39.4-10.32 4.23 16.93 3.7 6.34-29.08 5.28 5.42z" fill="#d83a3a"/><g stroke-miterlimit="10" stroke-width="1.59"><g stroke="#231f20"><path d="m259.54 386.33-10.32 4.23 16.93 3.7 6.34-29.08 5.28 5.42 22.49-14.68" fill="none"/><path d="m344.42 389.11s59.24-5.16 126.94 35.3c-26.18 23.8-134.36 91.5-134.36 91.5s-56.59-42.71-41-129.78c13.25 6.81 43.66 11.31 48.42 2.98z" fill="#d83a3a"/><path d="m411.2 353.13-3.04 10.79 18.84 1.48 1.79-7.63z" fill="#231f20"/><path d="m307 362.53 18.91 7.64-3.17 6.64 7.67 6.08-11.11 12.86-25.19-13.58-3.27-10.81z" fill="#fcaf83"/></g><path d="m356.19 404.71s47.6 1.06 66.45 17.92" fill="none" stroke="#fff"/></g><path d="m286.87 379.45 33.75 33.86 45.75-7.94-7-46.41-37.73 18.3 3.22 5.63-11.64 6.22-16.4-9.39 1.86-3.44 9.02 5.69-8.76-14.94-13.49 8.46z" fill="#fff"/><path d="m275.08 732 33.32-46.42 190.2-13.46 13.4 142.09-185 10.16s-1.13-89.23-1.13-91.61-50.79-.76-50.79-.76z" fill="#2a4968"/><path d="m298.94 367.03-13.49 8.46 1.42 3.96 33.75 33.86 45.75-7.94" fill="none" stroke="#231f20" stroke-miterlimit="10" stroke-width="1.59"/><path d="m313.22 389.11-16.4-9.39 1.86-3.44 9.02 5.69" fill="none" stroke="#231f20" stroke-miterlimit="10" stroke-width="1.59"/><path d="m282.54 382.89 27.24-21.68-8.2-10.05-25.91 21.16z" fill="#fff"/><path d="m275.67 372.32 6.87 10.57 27.24-21.68" fill="none" stroke="#231f20" stroke-miterlimit="10" stroke-width="1.59"/><path d="m539.7 528.2-3.18-87.98-51.85 10.16-3.1 26.47 15.76 1.85 1.75-14.98 22.26-4.36 2.16 60.22-76.8 47.79-9.77-15.96-9.53 7.14 9.67 14.81-81.76 50.88-8.52-13.93-9.52 7.15 8.36 12.8-114.83 71.44 8.39 13.47 115.11-71.62 1.61 2.46 9.09-5.94-1.41-2.3 82.16-51.12.3.46 9.08-5.95-.15-.25z" fill="#cee9f4" stroke="#231f20" stroke-miterlimit="10" stroke-width="1.59"/><circle cx="248.35" cy="390.55" fill="#fff" r="4.41"/><g stroke="#231f20" stroke-miterlimit="10" stroke-width="1.59"><path d="m354.61 602.92 18.64 28.56 9.08-5.95-18.2-29.75z" fill="#fff"/><path d="m316.92 500 135.02-91.45 19.42 11.1-145.45 98.38z" fill="#231f20"/><path d="m447.19 549.14 18.65 28.56 9.08-5.95-18.21-29.75z" fill="#fff"/><path d="m252.76 390.55a4.42 4.42 0 0 1 -8.83 0" fill="none"/></g><path d="m160.63 562.46 144 76.16 193.97-112.26-9.52-97.98-205.08 121.78-79.34-24.2-46.81 26.58z" fill="#fff"/><path d="m489.08 428.38-205.08 121.78-79.34-24.2-46.81 26.58 2.78 9.92 144 76.16 193.97-112.26" fill="none" stroke="#231f20" stroke-miterlimit="10" stroke-width="1.59"/><path d="m757.76 273.68 16.07 127.14 7.73-125.56" fill="#cee9f4"/><path d="m757.76 273.68 16.06 127.14" fill="none" stroke="#231f20" stroke-miterlimit="10" stroke-width="1.59"/><path d="m769.73 178.08-8.73-5.16-25.98 7.14-7.74-15.47-11.9 5.16 5.56 11.3-14.08 5.16-10.72-16.07-18.24 7.14 12.96 15.28-18.12 5.35-16.53-18.11-19.04 9.88 18.23 15.75 3.71 3.21 7.09 6.13 80.45-28.1 18.52-3.04z" fill="#995822"/><g fill="none" stroke="#231f20" stroke-miterlimit="10" stroke-width="1.59"><path d="m715.38 169.75 5.56 11.3-14.08 5.16"/><path d="m637.17 189.68 18.23 15.75 3.71 3.21 7.09 6.13 80.45-28.1 18.52-3.04 4.56-5.55-8.73-5.16-25.98 7.14"/><path d="m677.9 177.28 12.96 15.28-18.12 5.35"/></g><path d="m698.8 344.74 53.95 69.82-33.85-90.68" fill="#cee9f4"/><path d="m698.8 344.74 53.95 69.82" fill="none" stroke="#231f20" stroke-miterlimit="10" stroke-width="1.59"/><path d="m746.65 186.67 18.52-11.37 25.65 2.11 4.23 7.68-24.2 16.39 18.65 77.23 36.49-13.89-17.72 99.83.53-71.93-115.3 71.93-2.64-68.5 58.7-42.04z" fill="#fff"/><path d="m679.22 304.75-19.04-3.84-2.65 13.76 28.83-2.91z" fill="#fff"/><g fill="none" stroke="#231f20" stroke-miterlimit="10" stroke-width="1.59"><path d="m657.53 314.67 28.83-2.91-7.14-7.01"/><path d="m790.82 177.41 4.23 7.68-29.88 20.24"/><path d="m808.27 364.65.53-71.93-115.3 71.93-2.64-68.5 58.7-42.04-2.91-67.44 18.52-11.37"/><path d="m777.39 282.47 48.18-17.59"/></g><path d="m715.43 309.23s14.57 44.57-19.55 78.69c-6.08 26.18-16.88 79.6-16.88 79.6l-3.44-75.63s21.42-21.29 3.7-87.14l33.29-24.11" fill="#fff"/><path d="m679 467.52-3.44-75.63s21.42-21.29 3.7-87.14l33.29-24.11" fill="none" stroke="#231f20" stroke-miterlimit="10" stroke-width="1.59"/><path d="m715.43 309.23s14.57 44.57-19.55 78.69" fill="none" stroke="#231f20" stroke-miterlimit="10" stroke-width="1.59"/><path d="m744.68 235.84 44.55 5.7 1.99 15.74-45.09-3.04z" fill="#d83a3a"/><g stroke="#231f20" stroke-miterlimit="10" stroke-width="1.59"><path d="m791.22 257.28-45.09-3.04-1.45-18.4" fill="none"/><path d="m757.76 273.68 5.57 47.41" fill="#fff"/><path d="m793.52 182.31-2.7-4.89-6.35-.53c.46 2.24 2.26 5.97 9.05 5.42z" fill="#231f20"/><circle cx="769.49" cy="181.7" fill="#231f20" r="1.03"/><path d="m772.7 190.67a6.72 6.72 0 0 0 6.85 0" fill="none"/></g><g fill="#ffc229"><circle cx="745.07" cy="245.25" r="4.76"/><circle cx="761.03" cy="246.56" r="4.76"/><circle cx="775.22" cy="248.4" r="4.76"/><circle cx="789.5" cy="249.18" r="4.76"/></g><g stroke="#231f20" stroke-miterlimit="10" stroke-width="1.59"><g fill="none"><path d="m743.58 250.29a4.76 4.76 0 0 1 0-9.52"/><path d="m759.54 251.6a4.76 4.76 0 0 1 0-9.52"/><path d="m773.73 253.44a4.76 4.76 0 1 1 0-9.52"/><path d="m788 254.22a4.76 4.76 0 1 1 0-9.52"/></g><path d="m424.02 415.94 26.98 17.49 26.97-16.36-31.47-16.72z" fill="#ffc229"/><path d="m440.03 416.09 11.74 8.52 11.48-7.48-13.87-7.37z" fill="#231f20"/></g><path d="m383.13 638.07h23.08v49.6h-23.08z" fill="#2a4968"/><path d="m376.2 628.83h36.93v15.56h-36.93z" fill="#2a4968"/><path d="m327.04 416.28 69.22 7.93 28.95-35.9 24.4 22.81-33.52 51.37-67.83-1.78" fill="#d83a3a" stroke="#231f20" stroke-miterlimit="10" stroke-width="1.59"/><path d="m169.36 587.05 40.06-17.45-11.9-29.36 7.94-3.57 79.33 29.36 201.51-130.51 4.4 9.55 24.56-13.52-16.66-34.11-216.59 140.03-75.36-24.99-62.68 34.51z" fill="#ffc229"/><path d="m143.97 546.99 25.39 40.06 40.06-17.45-11.9-29.36 7.94-3.57 79.33 29.36 201.51-130.51 4.4 9.55 24.56-13.52-16.66-34.11" fill="none" stroke="#231f20" stroke-miterlimit="10" stroke-width="1.59"/><path d="m410.86 359.7s-23.42-.71-20.75-13.23c4-18.65 28.71 7.1 48.37 31.22 0 0 45.84 64.18 146.2 19.75s174.54-128.13 180.49-149.94" fill="none" stroke="#ffc229" stroke-miterlimit="10" stroke-width="1.59"/><path d="m268.6 711.08-8.38-13.47 292.63-182.23-2.19-60.21-22.25 4.36-1.75 14.98-15.76-1.84 3.1-26.48 51.84-10.17 3.2 87.97z" fill="#fff"/><path d="m268.6 711.08-8.38-13.47 292.63-182.23-2.19-60.21-22.25 4.36-1.75 14.98" fill="none" stroke="#231f20" stroke-miterlimit="10" stroke-width="1.59"/><path d="m427 395.75 4.36-22.71 3.57 4.65v7.45l5.76-12.1 14.27 18.84-7.73 19.24z" fill="#d83a3a"/><path d="m431.36 373.04 3.57 4.65v10.1" fill="none" stroke="#231f20" stroke-miterlimit="10" stroke-width="1.59"/><path d="m454.96 391.88-7.73 19.24-20.23-15.37" fill="none" stroke="#231f20" stroke-miterlimit="10" stroke-width="1.59"/><path d="m408.16 402.2 34.31 24.99 9.47-15.86-28.31-25.2z" fill="#fff"/><g fill="none" stroke="#231f20" stroke-miterlimit="10" stroke-width="1.59"><path d="m408.16 402.2 34.31 24.99 9.47-15.86"/><path d="m486.3 435.52-7.46-13.88 12.97-5.95 6.79 11.5"/><path d="m197.52 540.24-26.58 12.3 7.54 17.06 16.27-6.35"/></g><g fill="#ffc229"><circle cx="761.03" cy="269.14" r="5.94"/><circle cx="738.82" cy="294.86" r="5.94"/><circle cx="718.52" cy="314.67" r="5.94"/><circle cx="686.36" cy="340.96" r="5.94"/><circle cx="654.75" cy="364.08" r="5.94"/><circle cx="604.37" cy="324.35" r="5.94"/><circle cx="580.31" cy="350.69" r="5.94"/><circle cx="544.75" cy="371.6" r="5.94"/><circle cx="511.95" cy="378.26" r="5.94"/><circle cx="615.61" cy="387.79" r="5.94"/><circle cx="563.1" cy="411.12" r="5.94"/><circle cx="527.41" cy="417.07" r="5.94"/></g><g fill="#fff"><circle cx="373.32" cy="397.9" r="2.58"/><path d="m390.56 399.06a2.58 2.58 0 1 1 -3.53-.95 2.57 2.57 0 0 1 3.53.95z"/><circle cx="402.85" cy="404.71" r="2.58"/></g><path d="m170.74 782.15 29.24 111.18 206.56-94.12-54.71-79.33h-134.08z" fill="#3a5e89"/><path d="m482.52 515.91-171.89 103.29-41.86-26.69 202.59-124.99z" fill="none" stroke="#ffc229" stroke-miterlimit="10" stroke-width="1.59"/><path d="m413.44 725.29 62.95-81.01 244.35-13.89 27.36 152.28-253 74.85-6.54-137.64z" fill="#3a5e89"/><path d="m143.97 366.63-23.8-41.52" fill="none" stroke="#231f20" stroke-miterlimit="10" stroke-width="1.59"/><path d="m251.87 778.19-61.51 78.58 13.91 52.86 256.5 35.11 101.3-129.27-53.16-49.18z" fill="#4678aa"/><path d="m599 590.52s-20.66-40.52 21-59.52-6-46.79 37.29-61.47 170.63-16.26 170.63-16.26l-57.75 56.33s-106.54-5.56-105 12.29-13.48 29.14-52 32.82c-20.95 3.68-14.17 35.81-14.17 35.81z" fill="#4678aa"/><g fill="none" stroke="#231f20" stroke-miterlimit="10" stroke-width="1.59"><path d="m154.28 364.68 2.38-25.54"/><path d="m144 390.17s-9.12 40.19 4.36 73.12"/><path d="m153.48 380.18s5 11.24 13.76 14.78"/></g><path d="m874.92 527.62 3.7-8.57-22.82-102c-154.66 0-139.47 34.42-106 60.5 34.64 27 6.61 35.7-13.22 59.5s40.46 61.09 40.46 61.09c17.89 12.94-3.25 37.28-3.25 37.28s35-19.83 4-61.89c-18.79-25.65 44.72-39.22 97.13-45.91z" fill="#90dbfc"/><path d="m872.43 546.21 42.68-12.71-51.35-80.45c-128.58-10.05-118.2 19.51-92.06 43.38 27 24.69 3.17 30.11-14.87 48.6s29.64 53.43 29.64 53.43c14 11.93-5.13 30.79-5.13 30.79s30.38-14.2 7.4-51.2c-14.02-22.57 39.69-29.7 83.69-31.84z" fill="none" stroke="#fff" stroke-miterlimit="10" stroke-width="1.59"/><path d="m712.51 645.76v104.72h66.24l45.19-104.72z" fill="#68bbea"/><path d="m690.98 605.3v45.22h130.9l19.52-45.22z" fill="#5898cc"/><path d="m690.98 650.52h130.9" fill="none" stroke="#231f20" stroke-miterlimit="10" stroke-width="1.59"/><path d="m681.86 975 101.39-234.96-187.07 6.47-129.62 199.02z" fill="#5898cc"/><g fill="none" stroke-miterlimit="10" stroke-width="1.59"><path d="m596.18 746.51-129.62 199.02" stroke="#231f20"/><g stroke="#4678aa"><path d="m648.54 744.7-132.24 200.83"/><path d="m700.11 742.92-134.08 202.61"/><path d="m750.33 741.18-134.56 204.35"/><path d="m753.39 810.62-87.88 134.91"/></g></g><path d="m681.86 975 10.75-24.9-1.63-2.6h-45.08l-11.4-26.01-34.09-6.78-31.37 6.78-10.58-15.25-18.76-5.29-24.44 20.54-12.16-20.54h-31.74v15.87l-30.38 6.35v18.86z" fill="#fff"/><path d="m581.11 586.94h34.91v80.92h-34.91z" fill="#3a5e89"/><path d="m569.05 571.87h55.86v25.39h-55.86z" fill="#3a5e89"/><circle cx="373.32" cy="164.59" fill="#ffde94" r="52.26"/><circle cx="386.32" cy="156.24" fill="none" r="52.26" stroke="#fff" stroke-miterlimit="10" stroke-width="1.59"/><g fill="#ffc229"><path d="m501.35 729.29h21.19v21.19h-21.19z"/><path d="m547.87 755.69h21.19v21.19h-21.19z"/><path d="m648.54 718.69h21.19v21.19h-21.19z"/><path d="m402.84 890.36h21.19v21.19h-21.19z"/><path d="m292.57 890.36h21.19v21.19h-21.19z"/><path d="m413.44 739.88h21.19v21.19h-21.19z"/></g><path d="m413.44 725.29 108.96-8.39-25.39-3.71-10.84 1.98-9.78-13.35-13.49 6.88-9.26 4.86-9.52-6.18-11.63 3.7-15.08-1.59-6.34 8.46z" fill="#fff"/><path d="m710.89 706.48-242.39 13.4" fill="none" stroke="#fff" stroke-miterlimit="10" stroke-width="1.59"/><path d="m518.44 862.52-324.82 6.63" fill="none" stroke="#fff" stroke-miterlimit="10" stroke-width="1.59"/><path d="m164.6 869.15 29.02-33.89 33.65 9.86 21.42-13.72h20.08l14.85 15.7 38.86 4.93 18.24-6.91 13.89 20.7z" fill="#fff"/><path d="m733.7 950.67 137.51-312.05 49.72 192.78z" fill="#5898cc"/><g fill="#fff"><path d="m332.79 265c5.1 0 5.11-7.93 0-7.93s-5.11 7.93 0 7.93z"/><path d="m446 315.72c5.11 0 5.12-7.93 0-7.93s-5.11 7.93 0 7.93z"/><path d="m541.18 147.53c5.1 0 5.11-7.93 0-7.93s-5.12 7.93 0 7.93z"/><path d="m640.61 143.3c5.1 0 5.11-7.93 0-7.93s-5.11 7.93 0 7.93z"/><path d="m674.46 260.72c5.1 0 5.11-7.94 0-7.94s-5.11 7.94 0 7.94z"/><path d="m586.66 501.9c5.11 0 5.12-7.94 0-7.94s-5.11 7.94 0 7.94z"/><path d="m597.24 672.2c5.1 0 5.11-7.93 0-7.93s-5.11 7.93 0 7.93z"/><path d="m686.1 577c5.1 0 5.11-7.93 0-7.93s-5.1 7.93 0 7.93z"/><path d="m733.7 629.89c5.1 0 5.11-7.93 0-7.93s-5.12 7.93 0 7.93z"/><path d="m813 500.84c5.11 0 5.12-7.93 0-7.93s-5.11 7.93 0 7.93z"/><path d="m473.48 618.26c5.1 0 5.11-7.94 0-7.94s-5.12 7.94 0 7.94z"/><path d="m198.45 653.16c5.1 0 5.11-7.93 0-7.93s-5.12 7.93 0 7.93z"/><path d="m243.93 285.05c5.11 0 5.12-7.94 0-7.94s-5.11 7.94 0 7.94z"/><path d="m365.58 73.49c5.11 0 5.11-7.94 0-7.94s-5.11 7.94 0 7.94z"/><path d="m486.17 196.19c5.11 0 5.11-7.93 0-7.93s-5.11 7.93 0 7.93z"/><path d="m819.38 389.77c5.1 0 5.11-7.93 0-7.93s-5.11 7.93 0 7.93z"/><path d="m692.44 492.38c5.11 0 5.12-7.94 0-7.94s-5.11 7.94 0 7.94z"/><path d="m212.2 765.29c5.1 0 5.11-7.93 0-7.93s-5.11 7.93 0 7.93z"/><path d="m420.06 251.86c2.55 0 2.55-4 0-4s-2.56 4 0 4z"/><path d="m486.7 124.92c2.55 0 2.56-4 0-4s-2.56 4 0 4z"/><path d="m615.22 166.18c2.56 0 2.56-4 0-4s-2.55 4 0 4z"/><path d="m532.71 321.67a2 2 0 0 0 0-4c-2.55 0-2.55 4 0 4z"/><path d="m355 321.67a2 2 0 0 0 0-4c-2.55 0-2.55 4 0 4z"/><path d="m277.25 197.91c2.56 0 2.56-4 0-4s-2.55 4 0 4z"/><path d="m286.77 293.11a2 2 0 0 0 0-4c-2.55 0-2.55 4 0 4z"/><path d="m156.66 623.15c2.56 0 2.56-4 0-4s-2.55 4 0 4z"/><path d="m226.48 669.16c2.55 0 2.56-4 0-4s-2.56 4 0 4z"/><path d="m174.12 704.07c2.55 0 2.55-4 0-4s-2.56 4 0 4z"/><path d="m286.77 753.26c2.56 0 2.56-4 0-4s-2.55 4 0 4z"/><path d="m399.43 818.31c2.55 0 2.56-4 0-4s-2.56 4 0 4z"/><path d="m543.82 683.44c2.55 0 2.56-4 0-4s-2.56 4 0 4z"/><path d="m545.41 605.69c2.55 0 2.55-4 0-4s-2.56 4 0 4z"/><path d="m643.78 447a2 2 0 0 0 0-4c-2.55 0-2.55 4 0 4z"/><path d="m718.36 420.05c2.55 0 2.56-4 0-4s-2.56 4 0 4z"/><path d="m754.85 361.34c2.56 0 2.56-4 0-4s-2.55 4 0 4z"/><path d="m721.53 231.23c2.55 0 2.56-4 0-4s-2.55 4 0 4z"/><path d="m550.17 190c2.55 0 2.55-4 0-4s-2.56 4 0 4z"/><path d="m307.4 105.88c2.55 0 2.56-4 0-4s-2.56 4 0 4z"/><path d="m388.32 715.18c2.56 0 2.56-4 0-4s-2.55 4 0 4z"/><path d="m769.13 702.48a2 2 0 0 0 0-4c-2.55 0-2.55 4 0 4z"/><path d="m683.45 812c2.55 0 2.56-4 0-4s-2.56 4 0 4z"/><path d="m608.88 843.7c2.55 0 2.55-4 0-4s-2.56 4 0 4z"/><path d="m497.81 824.66c2.55 0 2.55-4 0-4s-2.56 4 0 4z"/></g></svg>