<svg viewBox="0 0 1000 1000" xmlns="http://www.w3.org/2000/svg" xmlns:xlink="http://www.w3.org/1999/xlink"><clipPath id="a"><path d="m519.21 414.26-145.85 551.03 279.77-177.62 91.8-373.41z"/></clipPath><path d="m701.2 25 184.77 417.06-51.56 230.53-461.05 292.7-259.33-418.07 197.15-475.21z" fill="#172338"/><g fill="#2c4568"><path d="m473.14 368.97h51.7v-238.61h22.94v-86.87l-96.83 11.68v75.19h22.19z"/><path d="m269.7 266.63h-39.26l-33.53 80.82v109.7h80.47v-21.78h72.8v-232.18h-80.48z"/><path d="m372.37 220.63h77.22v154.97h-77.22z"/><path d="m544.95 220.63h48.15v154.97h-48.15z"/><path d="m840.98 340.51-31.09-70.18h-1.42v-3.2l-48.53-109.54h-11.77v39.75h-76.75v72.99h-46.85v132.2h123.6 22.6 11.83 25.87 32.51z"/></g><path d="m849.07 582.78 8.94-15.68 27.96-125.04-51.26-115.71-34.17 18.15-11.12-62.25-48.41 8.05-10.11 73.41-13.27 16.17-12.13-64.94-219.19 3.77-13.36 83.42-46.79 55.61-39.29-119.31-87.82 4.04 12.13 64.71-16.17 13.27-19.21-77.98-68.44-20.22-93.33 224.96 68.75 110.84z" fill="#3a5e89"/><path d="m373.36 965.29 461.05-292.7 39.29-175.66-15.84-61.1-.7-56.99-20.46-47.99 5.29 43.8-18.78-1.6-6.49-52.56-45.5 2.27 4.56 46.26-18.19-1.55-43.27-175.46-13.12-9.03-11.63 14.41 11.63 12.38 43.26 204.46-8.63 109.22-38.17 12.09-8.09-185.99-124.36 16.18-29.82 240.84-6.64-240.84-30.75 3.1 3.6-32.42-53.83-5.56-6.35 43.68-43.06 4.34-19.94 197.16-24.94 20.05-11.96-65.79-12.52-252.19-17.68 31.36-.54 131.09-38.99 5-4.08-51.1h-62.69l6.69 58.8-35 4.49-22.24-10.11-10.92 28.43 29.83 71.18-3.37 90.23z" fill="#4678aa"/><path d="m558.01 414.26 35.77-39.61h80.47l-33.59 46.18z" fill="#141414" stroke="#141414" stroke-miterlimit="10" stroke-width="1.52"/><path d="m590.24 233.53-30.33 116.02 30.33 3.03-15.17 72.8 68.25-26.54 28.81-153.18z" fill="#fc9d7c"/><g stroke="#141414" stroke-miterlimit="10" stroke-width="1.52"><path d="m575.07 425.38 68.25-26.54 28.81-153.18-81.89-12.13" fill="none"/><path d="m559.91 349.55 30.33 3.03" fill="none"/><path d="m593.78 253.25-28.57 40.19 21.99 2.78" fill="#fc9d7c"/></g><path d="m603.89 183.74 115.76-103.13-43.98 149.13z" fill="#ffc91d"/><path d="m719.65 80.61-43.98 149.13" fill="none" stroke="#141414" stroke-miterlimit="10" stroke-width="1.52"/><path d="m582.65 194.86 15.93-20.22 83.41 53.84-10.87 21.99z" fill="#f7b228"/><path d="m598.58 174.64 83.41 53.84-10.87 21.99-88.47-55.61" fill="none" stroke="#141414" stroke-miterlimit="10" stroke-width="1.52"/><path d="m640.28 254.51-52.39-12.02-52.5-31.96 20.98-40.69 117.53 72.54 15.67 26.03-31.48 51.9-3.4-36.23-18.31 41z" fill="#af4f31"/><g fill="none" stroke="#141414" stroke-miterlimit="10" stroke-width="1.52"><path d="m647.57 256.18-59.68-13.69-52.5-31.96"/><path d="m636.38 325.08 18.31-40.99"/><path d="m556.37 169.84 117.53 72.54 15.67 26.03-31.48 51.9"/></g><path d="m726.98 83.89 14.54 57.89h21.23l-10.43 30.52-25.34-3.22-4.61-78.49 1.56-9.19z" fill="#fff"/><path d="m726.98 169.08-4.61-78.49 1.56-9.19 3.05 2.49 14.54 57.89h21.23" fill="none" stroke="#141414" stroke-miterlimit="10" stroke-width="1.52"/><path d="m721.42 79.34 5.56 4.55 6.07 76.34 27.55 11.63-20.47 37.91-38.93-26.79 18.07-98.14z" fill="#fff"/><path d="m721.42 79.34 5.56 4.55 6.07 76.34 27.55 11.63-20.47 37.91" fill="none" stroke="#141414" stroke-miterlimit="10" stroke-width="1.52"/><path d="m590.24 352.58 36.3 3.75" fill="#fff" stroke="#141414" stroke-miterlimit="10" stroke-width="1.52"/><path d="m434.03 284.08h-47.02l-75.83 317.24 71.41 129.02 30.36-31.07-13.8-132.44z" fill="#fc9d7c"/><g fill="none" stroke="#141414" stroke-miterlimit="10" stroke-width="1.52"><path d="m311.18 601.32 71.41 129.02 30.36-31.07-13.8-132.44 34.88-282.75h-47.02"/><path d="m603.89 301.78s-10.37 4.3-11.38 13.9 8.09 14.66 14.16 15.17"/><path d="m601.61 267.15s5.31-6.82 17.19-5.56"/><path d="m577.09 267.15s-5.3-6.82-17.18-5.56"/></g><path d="m576.58 306.12-247-65.51-18.45 82.15 264.52-9a3.94 3.94 0 0 0 3.57-2.59 3.88 3.88 0 0 0 -2.64-5.05z" fill="#ed5d97"/><g fill="#fff" opacity=".61"><path d="m345.18 265.52a20.85 20.85 0 1 0 38.82-10.52l-28.43-7.54a20.79 20.79 0 0 0 -10.39 18.06z"/><path d="m377.75 320.49 41.22-1.4a20.83 20.83 0 0 0 -41.22 1.4z"/><path d="m461.81 275.68a20.84 20.84 0 1 0 39.79 10.55z"/><path d="m509.71 316 38.07-1.3a20.82 20.82 0 0 0 -38.07 1.3z"/></g><path d="m329.63 240.61-18.45 82.15 264.52-9a3.94 3.94 0 0 0 3.57-2.59 3.88 3.88 0 0 0 -2.69-5" fill="none" stroke="#141414" stroke-miterlimit="10" stroke-width="1.52"/><path d="m579.27 311.16s-.15 5.28-7 7.55" fill="none" stroke="#141414" stroke-miterlimit="10" stroke-width="1.52"/><path d="m694.9 164.55a21.47 21.47 0 1 0 -12 40.54z" fill="#ed5d97"/><path d="m663.79 183.74a21.49 21.49 0 0 0 19.15 21.35l12-40.54a21.32 21.32 0 0 0 -9.62-2.3" fill="none" stroke="#141414" stroke-miterlimit="10" stroke-width="1.52"/><path d="m646.1 167.21a17.69 17.69 0 0 0 11.39-31.21l-26.14 23.29a17.68 17.68 0 0 0 14.75 7.92z" fill="#8fdef9"/><path d="m631.35 159.28a17.69 17.69 0 0 0 32.44-9.77" fill="none" stroke="#141414" stroke-miterlimit="10" stroke-width="1.52"/><path d="m530.59 414.26h-44.28l-87.16 152.57 13.8 132.44 112.07-114.65z" fill="#5bd5d8"/><path d="m399.15 566.83 13.8 132.44 112.07-114.65 5.57-170.36h-44.28" fill="none" stroke="#141414" stroke-miterlimit="10" stroke-width="1.52"/><g clip-path="url(#a)"><path d="m519.21 414.26-145.85 551.03 279.77-177.62 91.8-373.41z" fill="#5bd5d8"/><g fill="#acfcfa"><path d="m345.86 432.96h511.3v9.1h-511.3z"/><path d="m345.86 470.91h511.3v9.1h-511.3z"/><path d="m345.86 508.85h511.3v9.1h-511.3z"/><path d="m345.86 546.8h511.3v9.1h-511.3z"/><path d="m345.86 584.74h511.3v9.1h-511.3z"/><path d="m345.86 622.69h511.3v9.1h-511.3z"/><path d="m345.86 660.63h511.3v9.1h-511.3z"/><path d="m345.86 698.58h511.3v9.1h-511.3z"/><path d="m345.86 736.52h511.3v9.1h-511.3z"/><path d="m345.86 774.47h511.3v9.1h-511.3z"/><path d="m345.86 812.41h511.3v9.1h-511.3z"/><path d="m345.86 850.36h511.3v9.1h-511.3z"/><path d="m345.86 888.3h511.3v9.1h-511.3z"/><path d="m345.86 926.25h511.3v9.1h-511.3z"/></g></g><path d="m701.2 112a14.81 14.81 0 0 0 0 29.62h.46l8-27a14.74 14.74 0 0 0 -8.46-2.62z" fill="#5bd5d8"/><g fill="none" stroke="#141414" stroke-miterlimit="10" stroke-width="1.52"><path d="m686.39 126.85a14.81 14.81 0 0 0 14.81 14.81h.46l8-27a14.74 14.74 0 0 0 -8.46-2.66"/><path d="m723.93 81.4-6.3 85.81 31.85 22.05"/><path d="m732.36 151.6 25.23 5.27"/><path d="m479.41 564.61-106.05 400.68"/><path d="m744.93 414.26h-225.72"/></g><path d="m597.16 414.11 77.09-39.46-2.12 39.61z" fill="#5bd5d8"/><g stroke="#141414" stroke-miterlimit="10" stroke-width="1.52"><path d="m674.25 374.65-2.12 39.61-74.97-.15" fill="none"/><g fill="#5bd5d8"><path d="m556.11 618.49 41.05-204.38"/><circle cx="604.58" cy="470.82" r="5.24"/><circle cx="591.92" cy="552.48" r="5.24"/></g></g><path d="m441.23 267.15 14.41 3.54s-3.22 14.6-15.74 11 1.33-14.54 1.33-14.54z" fill="#fc9d7c"/><path d="m455.64 270.69s-3.22 14.6-15.74 11" fill="none" stroke="#141414" stroke-miterlimit="10" stroke-width="1.52"/><path d="m782.59 705.48-37.66-291.22a.24.24 0 0 0 -.47 0l-76.12 305.34z" fill="#5bd5d8"/><path d="m717 524.31-48.66 195.29 114.25-14.12-37.66-291.22a.24.24 0 0 0 -.47 0" fill="none" stroke="#141414" stroke-miterlimit="10" stroke-width="1.52"/><circle cx="584.07" cy="601.32" fill="#5bd5d8" r="5.24" stroke="#141414" stroke-miterlimit="10" stroke-width="1.52"/><path d="m375.64 820.64 22.15-3.65 11.97 75.31-25.02 3.23 4.17 17.82 38.66-6.45-15.34-109.38-41.14 4.36z" fill="#fff"/><path d="m384.74 895.53 4.17 17.82 38.66-6.45" fill="none" stroke="#141414" stroke-miterlimit="10" stroke-width="1.52"/><path d="m371.09 801.88 4.55 18.76 22.15-3.65 11.97 75.31" fill="none" stroke="#141414" stroke-miterlimit="10" stroke-width="1.52"/><path d="m321.17 792.56h67.37v143.32h-67.37z" fill="#fff" transform="matrix(.98862551 -.15039814 .15039814 .98862551 -125.89 63.17)"/><path d="m326.04 787.63h54.88v135.06h-54.88z" fill="#ffc533" transform="matrix(.98862551 -.15039814 .15039814 .98862551 -124.55 62.86)"/><path d="m375.52 817.61-17.48-3.6-24.1 18.85-12.67-7-5.07-33.33 54.26-8.25z" fill="#fff"/><path d="m310.78 798.44 66.61-10.13 21.54 141.69-66.6 10.13" fill="none" stroke="#141414" stroke-miterlimit="10" stroke-width="1.52"/><path d="m326.6 924.58h80.38v22.14h-80.38z" fill="#fff" transform="matrix(.98862551 -.15039814 .15039814 .98862551 -136.5 65.78)"/><path d="m382.35 922.09 22.51-3.43 3.33 21.89-79.46 12.09-3.33-21.89 24.25-3.69" fill="none" stroke="#141414" stroke-miterlimit="10" stroke-width="1.52"/><path d="m782.59 705.49-305.03 193.65-68.81-12.71-9.6-57.63 46.5 7.07-8.08-27.8 4.55-3.54 30.33 19.21 299.27-199.69z" fill="#fc9d7c"/><g fill="none" stroke="#141414" stroke-miterlimit="10" stroke-width="1.52"><path d="m437.57 808.07 4.55-3.54 36.13 22.88"/><path d="m399.15 828.8 53.4 8.12"/><path d="m408.75 886.43 68.81 12.71 305.03-193.65-10.87-81.44"/></g><path d="m391.06 250.47-12.64 43.47h60.16l6.76-31.69z" fill="#fc9d7c"/><path d="m378.42 293.94h60.16l6.76-31.69" fill="none" stroke="#141414" stroke-miterlimit="10" stroke-width="1.52"/><path d="m341.52 234.73-20.96 94.73h-30.1l25.53-99.72z" fill="#ed5d97"/><g fill="none" stroke="#141414" stroke-miterlimit="10" stroke-width="1.52"><path d="m341.52 234.73-20.96 94.73h-30.1l25.53-99.72"/><path d="m401.34 841.95 44.32 6.31"/><path d="m401.34 856.67 44.32 6.31"/><path d="m405.41 871.39 44.32 6.3"/><path d="m403.66 253.2-10.39 40.74"/><path d="m417.14 256.13-9.65 37.81"/><path d="m430.61 259.06-8.9 34.88"/></g><path d="m371.09 760.61a16.32 16.32 0 0 0 -9 2.68 18.87 18.87 0 0 0 -23.24-2.2 10.6 10.6 0 0 0 -20.46 3.31 19 19 0 1 0 4.39 34.92 18.94 18.94 0 0 0 36.52-6.32 19.48 19.48 0 0 0 2.82-2.21 16.43 16.43 0 1 0 9-30.19z" fill="#fff"/><g fill="none" stroke="#141414" stroke-miterlimit="10" stroke-width="1.52"><path d="m313.65 763.77a18.79 18.79 0 0 1 4.77.63s13.41 3.52 10.58 21.93"/><path d="m338.88 761.09a10.61 10.61 0 0 0 -9.88-6.76"/><path d="m349.1 758.08a18.87 18.87 0 0 1 13 5.21 15.27 15.27 0 0 1 3.47 10.34"/><path d="m294.69 782.73a18.94 18.94 0 0 0 28.12 16.59 18.94 18.94 0 0 0 36.49-6.32 19.48 19.48 0 0 0 2.82-2.21 16.42 16.42 0 0 0 25.4-13.79"/><path d="m358.39 777s-2 8.18 3.73 13.76"/></g><path d="m357.35 824.63 13.74 88.72 9.86-3.42-11.8-87.58z" fill="#f99a3d"/><path d="m329.39 847.09 9.49 66.26h3.77l-13.26-88.72h-3.99z" fill="#fff"/><path d="m641.56 518.22-12.68 64.56h49.73l10.96-59.67z" fill="#141414"/><circle cx="499.37" cy="84.22" fill="#4678aa" r="27.81"/><g fill="#fff"><path d="m294.01 268.5-31.36-47.87 27.81-55.09 20.72 15.67-37.64 39.42z"/><path d="m286.92 276.5-77.85-46.76-6.58 26.39z"/><path d="m278.32 290.3-51.56 19.16-20.73 47.17h20.22l10.62-40.63z"/></g><g fill="none" stroke="#fff" stroke-miterlimit="10" stroke-width="1.52"><path d="m292.48 286.36s-34.38-9.61-77.35 0"/><path d="m285.24 305.6s-51.33 21.73-45 97.72"/><path d="m305.62 240.61s-4-49.29 30.84-51.31"/><path d="m244.71 220.63 20.98 26.87"/></g><g fill="#8fdef9"><path d="m366.03 196.38h34.13l-1.8 14.15-25.75-4.3z"/><path d="m292.48 371.29-14.16 16.68 14.16 9.77 13-13.23z"/><path d="m500 264.29 14.74-8.11 4.47 10.75-10.58 3.76z"/></g><path d="m791.19 415.12 14.74-8.11 4.46 10.74-10.58 3.76z" fill="#ffc91d"/><path d="m476.49 346.01 17.7 8.45-4.55 5.2z" fill="#8fdef9"/><path d="m264.69 682.95 17.7 8.44-4.55 5.21z" fill="#ed5d97"/><path d="m791.95 567.31 17.69 8.44-4.55 5.21z" fill="#ed5d97"/><path d="m257.09 470.15-14.91 8.31 2.78 6.57 17.51-3.53z" fill="#8fdef9"/><path d="m220.19 384.51-7.08 18.81h7.08z" fill="#ed5d97"/><path d="m746.1 321.44-7.08 18.81h7.08z" fill="#8fdef9"/><path d="m439.9 234.06 20.13-.53-4.39 9.86-15.74-2.78z" fill="#ed5d97"/><path d="m826.2 502.81 20.12-.53-4.39 9.86-15.73-2.78z" fill="#8fdef9"/><path d="m750.54 243.1 20.12-.53-4.38 9.86-15.74-2.79z" fill="#ed5d97"/><g fill="#ffc91d"><path d="m341.52 217.02h19.71l-2.53 7.67-17.18-1.52z"/><path d="m292.48 240.61-5.56-15.92 7.58-3.84z"/><path d="m341.52 342.98-2.03 25.99h10.69z"/></g><path d="m366.03 128.13 27.24-24.77v12.38z" fill="#ed5d97"/><path d="m323.82 134.7 3.54-31.34h5.06z" fill="#8fdef9"/><path d="m262.65 542.66-22.94 31.47 14.1 8.65z" fill="#ffc91d"/><path d="m305.48 457.15 8.17 20.44 15.35-6.69z" fill="#ed5d97"/><path d="m438.2 410.61 8.17 20.44 15.36-6.7z" fill="#ffc91d"/><g fill="none" stroke-miterlimit="10" stroke-width="1.52"><g stroke="#ed5d97"><path d="m627.97 76.35 12.32-26.07"/><path d="m618.8 95.77 4.17-8.83"/><path d="m647.57 105.58 31.78-9.81"/><path d="m626.64 112.04 9.74-3.01"/><path d="m636.61 141.66 6.71 4.67"/><path d="m622.97 132.17 5.48 3.82"/><path d="m605.97 155.2-2.08 22.86"/><path d="m607.43 139.25-.73 7.96"/><path d="m573.54 141.66-31.83 20.59"/><path d="m588.22 132.17-7.35 4.75"/><path d="m574.62 102.65-20.78-13.95"/><path d="m591.48 113.97-7.07-4.74"/><path d="m597.71 83.58-13.03-33.3"/><path d="m605.66 103.9-3.96-10.12"/></g><g stroke="#ffc91d"><path d="m421.28 120.77 26.15-12.14"/><path d="m401.79 129.81 8.86-4.11"/><path d="m417.61 155.77 30.69 12.82"/><path d="m397.4 147.32 9.41 3.93"/><path d="m386.09 176.46 2.16 7.88"/><path d="m381.69 160.44 1.77 6.44"/><path d="m353.89 167.24-16.24 16.23"/><path d="m365.22 155.92-5.66 5.65"/><path d="m337.65 136.08-37.64-4.57"/><path d="m355 138.19-8.69-1.06"/><path d="m363.46 106.8-7.03-24.02"/><path d="m369.16 126.3-2.39-8.17"/><path d="m393.4 106.94 11.32-33.92"/><path d="m386.49 127.64 3.44-10.31"/></g></g><path d="m434.45 975 356.06-194.61-44.8 169.7z" fill="#4678aa"/></svg>